<?xml version="1.0" encoding="UTF-8" standalone="no"?>
<!-- Created with Inkscape (http://www.inkscape.org/) -->

<svg
   width="127.06492mm"
   height="34.362675mm"
   viewBox="0 0 127.06492 34.362675"
   version="1.1"
   id="svg477"
   inkscape:version="1.2.1 (9c6d41e410, 2022-07-14)"
   sodipodi:docname="github-logo.svg"
   xmlns:inkscape="http://www.inkscape.org/namespaces/inkscape"
   xmlns:sodipodi="http://sodipodi.sourceforge.net/DTD/sodipodi-0.dtd"
   xmlns="http://www.w3.org/2000/svg"
   xmlns:svg="http://www.w3.org/2000/svg">
  <sodipodi:namedview
     id="namedview479"
     pagecolor="#ffffff"
     bordercolor="#999999"
     borderopacity="1"
     inkscape:showpageshadow="0"
     inkscape:pageopacity="0"
     inkscape:pagecheckerboard="0"
     inkscape:deskcolor="#d1d1d1"
     inkscape:document-units="mm"
     showgrid="false"
     inkscape:zoom="7.319248"
     inkscape:cx="165.72741"
     inkscape:cy="46.999364"
     inkscape:window-width="3840"
     inkscape:window-height="2066"
     inkscape:window-x="-11"
     inkscape:window-y="49"
     inkscape:window-maximized="1"
     inkscape:current-layer="layer1" />
  <defs
     id="defs474" />
  <g
     inkscape:label="Layer 1"
     inkscape:groupmode="layer"
     id="layer1"
     transform="translate(-101.01768,-97.049436)">
    <path
       d="m 125.49094,111.75674 h -10.67753 c -0.27552,0 -0.49883,0.22366 -0.49883,0.49954 v 5.22005 c 0,0.27552 0.22331,0.49988 0.49883,0.49988 h 4.16525 v 6.48582 c 0,0 -0.93522,0.31892 -3.52108,0.31892 -3.05047,0 -7.31202,-1.11478 -7.31202,-10.48597 0,-9.3726 4.43759,-10.60591 8.60354,-10.60591 3.60645,0 5.15973,0.63464 6.14857,0.9405 0.31079,0.0952 0.59796,-0.21378 0.59796,-0.48965 l 1.19097,-5.04402 c 0,-0.128764 -0.0437,-0.284339 -0.1905,-0.38982 -0.40146,-0.286103 -2.85079,-1.656644 -9.03852,-1.656644 -7.12787,0 -14.4399,3.032474 -14.4399,17.611374 0,14.57889 8.37142,16.7513 15.42592,16.7513 5.84094,0 9.38424,-2.4959 9.38424,-2.4959 0.14605,-0.0808 0.16192,-0.28469 0.16192,-0.37853 v -16.2814 c 0,-0.27588 -0.2233,-0.49954 -0.49882,-0.49954"
       style="fill:#161312;fill-opacity:1;fill-rule:nonzero;stroke:none;stroke-width:0.0352778"
       id="path160" />
    <path
       d="m 180.51863,98.796039 c 0,-0.277637 -0.22013,-0.502003 -0.49601,-0.502003 h -6.01204 c -0.27446,0 -0.49777,0.224366 -0.49777,0.502003 0,0.0014 0.002,11.618741 0.002,11.618741 h -9.37154 V 98.796039 c 0,-0.277637 -0.22084,-0.502003 -0.49601,-0.502003 h -6.01169 c -0.2734,0 -0.49671,0.224366 -0.49671,0.502003 v 31.460021 c 0,0.27763 0.22331,0.50341 0.49671,0.50341 h 6.01169 c 0.27517,0 0.49601,-0.22578 0.49601,-0.50341 V 116.7997 h 9.37154 c 0,0 -0.0166,13.4553 -0.0166,13.45636 0,0.27763 0.22295,0.50341 0.49812,0.50341 h 6.02615 c 0.27552,0 0.49565,-0.22578 0.49636,-0.50341 V 98.796039"
       style="fill:#161312;fill-opacity:1;fill-rule:nonzero;stroke:none;stroke-width:0.0352778"
       id="path162" />
    <path
       d="m 136.83592,102.92424 c 0,-2.16464 -1.73532,-3.914065 -3.87668,-3.914065 -2.13924,0 -3.87632,1.749425 -3.87632,3.914065 0,2.16289 1.73708,3.9169 3.87632,3.9169 2.14136,0 3.87668,-1.75401 3.87668,-3.9169"
       style="fill:#161312;fill-opacity:1;fill-rule:nonzero;stroke:none;stroke-width:0.0352778"
       id="path164" />
    <path
       d="m 136.40623,123.61995 c 0,-0.80645 0,-14.52209 0,-14.52209 0,-0.27588 -0.2226,-0.5013 -0.49741,-0.5013 h -5.99334 c -0.27482,0 -0.5207,0.28363 -0.5207,0.55915 0,0 0,17.47485 0,20.80578 0,0.61136 0.381,0.79339 0.87383,0.79339 0,0 2.55834,0 5.39961,0 0.59267,0 0.73801,-0.29104 0.73801,-0.80327 0,-1.11513 0,-5.48393 0,-6.33166"
       style="fill:#161312;fill-opacity:1;fill-rule:nonzero;stroke:none;stroke-width:0.0352778"
       id="path166" />
    <path
       d="m 203.36699,108.64383 h -5.96583 c -0.2734,0 -0.49636,0.22578 -0.49636,0.50306 v 15.42592 c 0,0 -1.51588,1.10878 -3.66712,1.10878 -2.15089,0 -2.72168,-0.97614 -2.72168,-3.08257 0,-2.10891 0,-13.45213 0,-13.45213 0,-0.27728 -0.22225,-0.50306 -0.49636,-0.50306 h -6.05508 c -0.27305,0 -0.49706,0.22578 -0.49706,0.50306 0,0 0,8.21479 0,14.47095 0,6.25651 3.48685,7.78686 8.28357,7.78686 3.93559,0 7.10848,-2.17382 7.10848,-2.17382 0,0 0.15099,1.14583 0.21942,1.28165 0.0681,0.13546 0.24624,0.27234 0.43886,0.27234 l 3.85198,-0.0173 c 0.27305,0 0.49706,-0.22577 0.49706,-0.502 l -0.002,-21.11869 c 0,-0.27728 -0.2226,-0.50306 -0.49777,-0.50306"
       style="fill:#161312;fill-opacity:1;fill-rule:nonzero;stroke:none;stroke-width:0.0352778"
       id="path168" />
    <path
       d="m 217.32006,125.66254 c -2.0694,-0.0628 -3.4731,-1.00189 -3.4731,-1.00189 v -9.9628 c 0,0 1.38465,-0.84878 3.08363,-1.00048 2.14842,-0.19226 4.21852,0.4565 4.21852,5.58165 0,5.40421 -0.93416,6.47101 -3.82905,6.38352 z m 2.35302,-17.72532 c -3.38843,0 -5.69312,1.512 -5.69312,1.512 V 98.796039 c 0,-0.277637 -0.22225,-0.502003 -0.49601,-0.502003 h -6.02933 c -0.2741,0 -0.49671,0.224366 -0.49671,0.502003 v 31.460021 c 0,0.27763 0.22261,0.50341 0.49742,0.50341 7.1e-4,0 4.18183,0 4.18324,0 0.18838,0 0.33091,-0.097 0.43639,-0.26705 0.10407,-0.16934 0.254,-1.45062 0.254,-1.45062 0,0 2.46521,2.33609 7.1321,2.33609 5.47935,0 8.62154,-2.77883 8.62154,-12.47599 0,-9.69751 -5.01862,-10.96468 -8.40952,-10.96468"
       style="fill:#161312;fill-opacity:1;fill-rule:nonzero;stroke:none;stroke-width:0.0352778"
       id="path170" />
    <path
       d="m 153.68529,108.59374 h -4.50991 c 0,0 -0.007,-5.95666 -0.007,-5.95772 0,-0.22577 -0.11642,-0.33831 -0.37712,-0.33831 h -6.14539 c -0.23919,0 -0.36724,0.10513 -0.36724,0.33479 v 6.15668 c 0,0 -3.07975,0.7433 -3.28825,0.80362 -0.20708,0.06 -0.35983,0.25118 -0.35983,0.47943 v 3.86891 c 0,0.27834 0.22225,0.50271 0.49706,0.50271 h 3.15102 c 0,0 0,4.04671 0,9.30769 0,6.91339 4.84928,7.59248 8.12129,7.59248 1.49543,0 3.28401,-0.48013 3.57929,-0.58914 0.1785,-0.0656 0.28222,-0.25082 0.28222,-0.4512 l 0.005,-4.25626 c 0,-0.27729 -0.2346,-0.502 -0.49847,-0.502 -0.26318,0 -0.93522,0.10689 -1.62737,0.10689 -2.21544,0 -2.9658,-1.02976 -2.9658,-2.36326 0,-1.33209 -3.5e-4,-8.8452 -3.5e-4,-8.8452 h 4.51026 c 0.27481,0 0.49742,-0.22437 0.49742,-0.50271 v -4.84611 c 0,-0.27763 -0.22261,-0.50129 -0.49742,-0.50129"
       style="fill:#161312;fill-opacity:1;fill-rule:nonzero;stroke:none;stroke-width:0.0352778"
       id="path172" />
  </g>
</svg>
